# xmcd
# 
# Track frame offsets:
#     150
#     16437
#     32113
#     47480
#     65851
#     81431
#     94964
#     112599
#     130911
#     151938
#     168971
# 
# Disc length: 2431
# 
# Revision: 0
# Processed by: cddbd v1.5.2PL0 Copyright (c) Steve Scherf et al.
# Submitted via: fre:ac v1.0.27
# 
DISCID=88097d0b
DTITLE=Glenn Simmons - Sweet Vanilla (...and assorted flavours)
DYEAR=2010
DGENRE=Country
TTITLE0=She Talked About Elvis
TTITLE1=Sweet Vanilla
TTITLE2=It Goes On
TTITLE3=Anytime
TTITLE4=Coz She's My Girl
TTITLE5=The Human Race
TTITLE6=Where
TTITLE7=Perfect Reputation
TTITLE8=The 20th Century
TTITLE9=Home Sweet Home
TTITLE10=Back Home
EXTD=
EXTT0=
EXTT1=
EXTT2=
EXTT3=
EXTT4=
EXTT5=
EXTT6=
EXTT7=
EXTT8=
EXTT9=
EXTT10=
PLAYORDER=
